<svg xmlns="http://www.w3.org/2000/svg" width="100%" height="100%" viewBox="0 0 1200 360"><defs><linearGradient id="bgGrad" x1="0%" x2="100%" y1="0%" y2="100%"><stop offset="0%" stop-color="#0F2027"/><stop offset="50%" stop-color="#203A43"/><stop offset="100%" stop-color="#2C5364"/></linearGradient><linearGradient id="leafGrad" x1="0%" x2="100%" y1="0%" y2="100%"><stop offset="0%" stop-color="#11998e"/><stop offset="100%" stop-color="#38ef7d"/></linearGradient><radialGradient id="glow" cx="50%" cy="50%" r="50%"><stop offset="0%" stop-color="#38ef7d" stop-opacity=".3"/><stop offset="100%" stop-color="#38ef7d" stop-opacity="0"/></radialGradient></defs><style>@keyframes pulse{0%{r:120px;opacity:.2}}.title{font-weight:800;font-size:46px;fill:#fff;letter-spacing:-.5px}.badge,.subtitle,.title{font-family:&apos;Segoe UI&apos;,system-ui,-apple-system,sans-serif}.subtitle{font-weight:400;font-size:20px;fill:#a3e635;letter-spacing:.5px}.badge{font-weight:600;font-size:14px;fill:#0f2027}.grid-line{stroke:rgba(255,255,255,.05);stroke-width:1}.pulse-circle{animation:pulse 4s infinite alternate ease-in-out}.wave-line{stroke:url(#leafGrad);stroke-width:2;fill:none;opacity:.4;stroke-dasharray:8 4;animation:dash 30s linear infinite}</style><rect width="1200" height="360" fill="url(#bgGrad)" rx="16"/><line x1="100" x2="100" y1="0" y2="360" class="grid-line"/><line x1="300" x2="300" y1="0" y2="360" class="grid-line"/><line x1="500" x2="500" y1="0" y2="360" class="grid-line"/><line x1="700" x2="700" y1="0" y2="360" class="grid-line"/><line x1="900" x2="900" y1="0" y2="360" class="grid-line"/><line x1="1100" x2="1100" y1="0" y2="360" class="grid-line"/><line x1="0" x2="1200" y1="60" y2="60" class="grid-line"/><line x1="0" x2="1200" y1="140" y2="140" class="grid-line"/><line x1="0" x2="1200" y1="220" y2="220" class="grid-line"/><line x1="0" x2="1200" y1="300" y2="300" class="grid-line"/><circle cx="1000" cy="180" r="150" fill="url(#glow)" class="pulse-circle"/><path d="M-50,280 Q300,100 600,220 T1250,120" class="wave-line"/><circle cx="950" cy="140" r="6" fill="#38ef7d"><animate attributeName="cy" dur="4s" repeatCount="indefinite" values="140;150;140"/></circle><circle cx="1050" cy="210" r="4" fill="#11998e"><animate attributeName="cx" dur="5s" repeatCount="indefinite" values="1050;1060;1050"/></circle><g transform="translate(70, 0)"><rect width="260" height="32" x="0" y="55" fill="url(#leafGrad)" rx="16"/><text x="130" y="76" class="badge" text-anchor="middle">🌱 AGTECH &amp; CLIMATE TECH</text><text x="0" y="145" class="title">Awesome Agricultural Carbon</text><text x="0" y="195" fill="#38ef7d" class="title">Management Ecosystem 🌾</text><text x="0" y="245" class="subtitle">Curated Soil MRV, Farm GHG Calculators, Carbon Markets &amp; Satellite Remote Sensing</text><g transform="translate(0, 275)"><rect width="130" height="28" x="0" y="0" fill="rgba(255,255,255,0.1)" stroke="rgba(255,255,255,0.2)" rx="6"/><text x="65" y="18" fill="#E2E8F0" font-family="Segoe UI" font-size="12" text-anchor="middle">🛰️ Satellite MRV</text><rect width="140" height="28" x="140" y="0" fill="rgba(255,255,255,0.1)" stroke="rgba(255,255,255,0.2)" rx="6"/><text x="210" y="18" fill="#E2E8F0" font-family="Segoe UI" font-size="12" text-anchor="middle">🚜 Farm Accounting</text><rect width="150" height="28" x="290" y="0" fill="rgba(255,255,255,0.1)" stroke="rgba(255,255,255,0.2)" rx="6"/><text x="365" y="18" fill="#E2E8F0" font-family="Segoe UI" font-size="12" text-anchor="middle">💰 Carbon Markets</text><rect width="140" height="28" x="450" y="0" fill="rgba(255,255,255,0.1)" stroke="rgba(255,255,255,0.2)" rx="6"/><text x="520" y="18" fill="#E2E8F0" font-family="Segoe UI" font-size="12" text-anchor="middle">🔓 Open-Source</text></g></g></svg>